<svg xmlns="http://www.w3.org/2000/svg" xmlns:xlink="http://www.w3.org/1999/xlink" xmlns:inkscape="http://www.inkscape.org/namespaces/inkscape" version="1.1" width="595.28" height="841.89" viewBox="0 0 595.28 841.89">
<defs>
<clipPath id="clip_0">
<path transform="matrix(1,0,0,-1,0,841.89)" d="M0 841.89H595.28V0H0Z"/>
</clipPath>
</defs>
<g inkscape:groupmode="layer" inkscape:label="&#x56FE;&#x5C42; 2_&#x590D;&#x5236;">
<g clip-path="url(#clip_0)">
<path transform="matrix(1,0,0,-1,95.5952,700.8588)" d="M0 0C-1.786-2.038-3.47-3.597-5.05-4.672-8.417-6.986-12.323-8.142-16.767-8.142-23.409-8.142-28.814-5.817-32.982-1.168-35.159 1.26-36.819 4.467-37.964 8.451-38.881 11.567-39.339 14.809-39.339 18.176-39.339 23.971-38.067 29.227-35.525 33.945-33.991 36.785-31.792 39.179-28.928 41.126-25.378 43.553-20.832 44.768-15.289 44.768-10.616 44.768-6.62 43.805-3.298 41.882-.458 40.278 1.798 38.034 3.47 35.148 4.455 33.452 4.948 31.929 4.948 30.578 4.948 29.913 4.775 29.353 4.432 28.895 3.561 27.727 2.427 27.142 1.03 27.142-.39 27.142-1.397 27.933-1.993 29.513-3.047 32.307-4.764 34.448-7.146 35.938-9.551 37.449-12.392 38.205-15.667 38.205-20.706 38.205-24.726 36.521-27.726 33.154-29.353 31.368-30.601 28.952-31.471 25.905-32.158 23.478-32.501 20.958-32.501 18.347-32.501 13.696-31.471 9.528-29.41 5.841-28.219 3.688-26.523 1.97-24.325 .687-21.736-.823-18.805-1.58-15.529-1.58-8.888-1.58-4.352 1.215-1.924 6.804-1.191 8.498-.79 10.776-.722 13.641H-9.792C-11.922 13.641-13.273 13.881-13.846 14.362-14.625 15.025-15.014 15.953-15.014 17.145-15.014 19.091-13.857 20.064-11.544 20.064H2.68L2.92 19.962C4.203 19.709 4.901 19.526 5.016 19.412 5.52 18.907 5.829 18.53 5.944 18.278 6.172 17.774 6.287 16.949 6.287 15.805V-2.954C6.287-4.535 5.989-5.589 5.394-6.114 4.798-6.618 4.031-6.871 3.092-6.871 .984-6.871-.057-5.771-.034-3.572Z"/>
<path transform="matrix(1,0,0,-1,116.6563,676.36276)" d="M0 0C2.84 3.597 5.84 5.395 9.001 5.395 11.292 5.395 12.438 4.204 12.438 1.821 12.438 1.021 12.242 .391 11.854-.068 11.372-.596 10.295-1.064 8.624-1.478 6.745-1.912 5.36-2.474 4.467-3.16 3.642-3.778 2.84-4.843 2.061-6.355 1.031-8.371 .515-10.467 .515-12.643V-28.138C.515-29.559 .251-30.531-.275-31.059-.825-31.631-1.683-31.917-2.851-31.917-4.02-31.917-4.878-31.631-5.428-31.059-5.956-30.531-6.219-29.559-6.219-28.138V1.375C-6.219 3.895-5.199 5.154-3.161 5.154-2.199 5.154-1.374 4.822-.687 4.158-.229 3.723 0 3.081 0 2.234Z"/>
<path transform="matrix(1,0,0,-1,157.4033,690.6546)" d="M0 0C-1.305-.573-2.978-.996-5.016-1.271-9.826-1.89-12.987-2.714-14.499-3.745-16.056-4.798-16.834-6.162-16.834-7.832-16.834-9.208-16.319-10.341-15.289-11.234-14.189-12.22-12.437-12.712-10.032-12.712-7.856-12.712-5.853-12.196-4.02-11.166-1.34-9.654 0-7.788 0-5.566ZM.997-14.053C-2.851-17.372-6.917-19.034-11.2-19.034-15.415-19.034-18.61-17.831-20.786-15.426-22.572-13.434-23.466-10.891-23.466-7.799-23.466-3.424-21.657-.229-18.037 1.787-16.044 2.909-11.612 3.86-4.741 4.638-2.497 4.89-1.088 5.382-.515 6.115-.171 6.551 0 7.112 0 7.8V9.277C0 12.645-2.451 14.327-7.353 14.327-10.169 14.327-12.254 13.709-13.605 12.472-14.155 11.991-14.773 11.144-15.46 9.929-16.239 8.509-17.282 7.8-18.587 7.8-19.503 7.8-20.293 8.165-20.958 8.899-21.507 9.518-21.782 10.204-21.782 10.96-21.782 12.586-20.946 14.304-19.274 16.113-16.525 19.068-12.655 20.546-7.662 20.546-2.371 20.546 1.351 19.285 3.504 16.767 5.245 14.705 6.115 12.483 6.115 10.101V-10.616C6.115-11.99 7.032-12.884 8.864-13.296 10.17-13.571 10.822-14.373 10.822-15.7 10.822-16.616 10.456-17.418 9.723-18.106 9.082-18.725 8.062-19.034 6.665-19.034 3.527-19.034 1.637-17.372 .997-14.053"/>
<path transform="matrix(1,0,0,-1,177.0215,671.2425)" d="M0 0V6.15C0 11.876 2.805 14.738 8.417 14.738 10.043 14.738 11.108 14.44 11.612 13.846 12.094 13.272 12.334 12.563 12.334 11.715 12.334 9.837 11.521 8.897 9.895 8.897H8.864C7.283 8.897 6.494 7.822 6.494 5.669V0H9.62C11.475 0 12.403-1.055 12.403-3.161 12.403-5.291 11.452-6.356 9.551-6.356H6.528V-33.292C6.528-34.759 6.264-35.755 5.737-36.28 5.187-36.853 4.375-37.14 3.298-37.14 2.176-37.14 1.34-36.853 .79-36.28 .263-35.755 0-34.759 0-33.292V-6.356H-2.783C-4.684-6.356-5.635-5.291-5.635-3.161-5.635-1.055-4.695 0-2.817 0Z"/>
<path transform="matrix(1,0,0,-1,200.1782,671.2425)" d="M0 0V6.15C0 11.876 2.805 14.738 8.417 14.738 10.043 14.738 11.108 14.44 11.612 13.846 12.093 13.272 12.334 12.563 12.334 11.715 12.334 9.837 11.521 8.897 9.894 8.897H8.864C7.283 8.897 6.493 7.822 6.493 5.669V0H9.619C11.475 0 12.402-1.055 12.402-3.161 12.402-5.291 11.452-6.356 9.551-6.356H6.527V-33.292C6.527-34.759 6.264-35.755 5.737-36.28 5.187-36.853 4.375-37.14 3.298-37.14 2.175-37.14 1.339-36.853 .79-36.28 .263-35.755 0-34.759 0-33.292V-6.356H-2.783C-4.685-6.356-5.635-5.291-5.635-3.161-5.635-1.055-4.696 0-2.818 0Z"/>
<path transform="matrix(1,0,0,-1,220.8604,704.2943)" d="M0 0V28.963C0 30.269 .355 31.22 1.065 31.815 1.729 32.388 2.497 32.673 3.367 32.673 4.375 32.673 5.234 32.307 5.944 31.575 6.47 31.048 6.734 30.177 6.734 28.963V0C6.734-1.306 6.391-2.255 5.704-2.851 5.016-3.423 4.238-3.71 3.367-3.71 2.359-3.71 1.5-3.344 .791-2.61 .263-2.061 0-1.19 0 0M3.402 47.79C4.684 47.79 5.738 47.355 6.562 46.485 7.387 45.638 7.799 44.606 7.799 43.394 7.799 41.996 7.318 40.874 6.356 40.026 5.532 39.271 4.547 38.893 3.402 38.893 2.027 38.893 .894 39.384 0 40.37-.733 41.194-1.1 42.179-1.1 43.325-1.1 44.652-.607 45.763 .378 46.657 1.203 47.412 2.21 47.79 3.402 47.79"/>
<path transform="matrix(1,0,0,-1,247.3154,677.53067)" d="M0 0V-22.641C0-23.786 .206-24.554 .619-24.942 1.053-25.379 1.946-25.596 3.298-25.596H3.573L4.054-25.561C5.886-25.561 6.803-26.58 6.803-28.618 6.803-29.878 6.539-30.761 6.012-31.264 5.485-31.768 4.111-32.02 1.89-32.02-.974-32.02-2.966-31.71-4.088-31.092-5.784-30.153-6.631-28.424-6.631-25.904V0H-8.83C-10.822 0-11.819 1.054-11.819 3.162-11.819 5.291-10.822 6.356-8.83 6.356H-6.631V8.349C-6.631 11.602-6.379 13.687-5.875 14.603-5.394 15.473-4.547 15.908-3.333 15.908-2.486 15.908-1.729 15.599-1.065 14.98-.287 14.27 .069 12.37 0 9.276V7.662 6.356H2.92C5.004 6.356 6.046 5.302 6.046 3.195 6.046 1.066 5.004 0 2.92 0Z"/>
<path transform="matrix(1,0,0,-1,261.3335,704.2943)" d="M0 0V28.963C0 30.269 .354 31.22 1.065 31.815 1.729 32.388 2.496 32.673 3.367 32.673 4.375 32.673 5.233 32.307 5.943 31.575 6.47 31.048 6.734 30.177 6.734 28.963V0C6.734-1.306 6.39-2.255 5.703-2.851 5.016-3.423 4.237-3.71 3.367-3.71 2.358-3.71 1.5-3.344 .79-2.61 .263-2.061 0-1.19 0 0M3.401 47.79C4.684 47.79 5.738 47.355 6.562 46.485 7.386 45.638 7.799 44.606 7.799 43.394 7.799 41.996 7.318 40.874 6.356 40.026 5.531 39.271 4.546 38.893 3.401 38.893 2.027 38.893 .893 39.384 0 40.37-.733 41.194-1.1 42.179-1.1 43.325-1.1 44.652-.607 45.763 .377 46.657 1.202 47.412 2.21 47.79 3.401 47.79"/>
<path transform="matrix(1,0,0,-1,305.2412,685.08926)" d="M0 0V-14.396C0-15.586 .596-16.182 1.785-16.182H25.492C26.98-16.182 27.979-16.469 28.481-17.041 28.963-17.613 29.202-18.393 29.202-19.377 29.202-20.499 28.894-21.336 28.274-21.884 27.794-22.343 26.866-22.572 25.492-22.572H-1.307C-3.275-22.572-4.662-22.171-5.464-21.369-6.265-20.545-6.665-19.159-6.665-17.213V22.436C-6.665 24.405-6.265 25.791-5.464 26.593-4.662 27.395-3.275 27.796-1.307 27.796H24.325C25.789 27.796 26.776 27.51 27.28 26.937 27.761 26.363 28.001 25.585 28.001 24.601 28.001 23.478 27.691 22.643 27.073 22.093 26.592 21.634 25.677 21.405 24.325 21.405H1.785C.985 21.405 .459 21.119 .207 20.547 .022 20.11-.069 18.05-.069 14.362-.069 12.873-.047 10.216 0 6.391H23.293C24.807 6.391 25.802 6.104 26.282 5.531 26.786 4.959 27.038 4.181 27.038 3.195 27.038 2.073 26.729 1.238 26.11 .688 25.606 .229 24.667 0 23.293 0Z"/>
<path transform="matrix(1,0,0,-1,349.7354,677.8402)" d="M0 0C1.352 2.291 2.655 3.896 3.915 4.812 6.046 6.345 8.587 7.113 11.542 7.113 15.162 7.113 17.888 6.082 19.72 4.021 21.323 2.211 22.126-.183 22.126-3.16V-26.798C22.126-28.194 21.872-29.157 21.368-29.683 20.797-30.255 19.927-30.542 18.758-30.542 17.591-30.542 16.73-30.255 16.182-29.683 15.653-29.157 15.392-28.194 15.392-26.798V-6.355C15.392-2.965 14.027-.664 11.303 .551 10.524 .917 9.687 1.1 8.794 1.1 8.221 1.1 7.293 .849 6.012 .345 5.026-.021 3.962-.996 2.817-2.576 2.129-3.537 1.626-4.363 1.304-5.05 .571-6.629 .204-8.634 .204-11.063V-26.798C.204-28.194-.048-29.157-.551-29.683-1.124-30.255-1.995-30.542-3.161-30.542-4.331-30.542-5.188-30.255-5.739-29.683-6.266-29.18-6.527-28.218-6.527-26.798V2.955C-6.527 5.452-5.476 6.7-3.368 6.7-2.246 6.7-1.364 6.345-.723 5.636-.242 5.108 0 4.514 0 3.849Z"/>
<path transform="matrix(1,0,0,-1,396.8027,676.8421)" d="M0 0C-2.61 0-4.857-1.009-6.734-3.024-8.771-5.223-9.792-8.567-9.792-13.057-9.792-16.263-9.139-19.115-7.834-21.611-7.124-22.94-6.037-24.04-4.57-24.91-3.194-25.712-1.684-26.112-.035-26.112 2.119-26.112 4.02-25.414 5.67-24.017 8.188-21.886 9.447-18.232 9.447-13.057 9.447-8.177 8.188-4.56 5.67-2.199 4.089-.734 2.199 0 0 0M9.552-25.803C6.343-30.062 2.725-32.193-1.307-32.193-4.765-32.193-7.879-30.922-10.652-28.38-14.407-24.921-16.284-19.939-16.284-13.435-16.284-8.784-15.334-4.789-13.435-1.443-12.083 .961-10.25 2.839-7.937 4.191-5.737 5.473-3.366 6.115-.825 6.115 4.169 6.115 7.786 3.894 10.033-.55V2.096C10.033 4.134 11.04 5.152 13.055 5.152 15.185 5.152 16.252 3.858 16.252 1.271V-24.635C16.252-31.208 15.643-35.938 14.429-38.824 13.514-41 12.172-42.706 10.409-43.943 7.685-45.891 4.191-46.864-.07-46.864-2.772-46.864-5.331-46.405-7.747-45.489-10.166-44.572-12.083-43.336-13.502-41.779-15.152-39.969-15.976-38.274-15.976-36.693-15.976-35.846-15.644-35.114-14.98-34.494-14.407-33.969-13.709-33.705-12.884-33.705-12.198-33.705-11.602-33.934-11.099-34.393-10.983-34.483-10.4-35.217-9.346-36.592-7.283-39.293-4.134-40.645 .102-40.645 3.927-40.645 6.527-39.396 7.901-36.9 9.001-34.907 9.552-32.09 9.552-28.448Z"/>
<path transform="matrix(1,0,0,-1,423.1543,704.2943)" d="M0 0V28.963C0 30.269 .354 31.22 1.065 31.815 1.729 32.388 2.496 32.673 3.366 32.673 4.374 32.673 5.234 32.307 5.944 31.575 6.471 31.048 6.735 30.177 6.735 28.963V0C6.735-1.306 6.391-2.255 5.703-2.851 5.018-3.423 4.236-3.71 3.366-3.71 2.359-3.71 1.499-3.344 .791-2.61 .263-2.061 0-1.19 0 0M3.401 47.79C4.683 47.79 5.737 47.355 6.563 46.485 7.386 45.638 7.8 44.606 7.8 43.394 7.8 41.996 7.318 40.874 6.356 40.026 5.531 39.271 4.546 38.893 3.401 38.893 2.027 38.893 .894 39.384 0 40.37-.732 41.194-1.099 42.179-1.099 43.325-1.099 44.652-.607 45.763 .377 46.657 1.202 47.412 2.21 47.79 3.401 47.79"/>
<path transform="matrix(1,0,0,-1,447.4805,677.8402)" d="M0 0C1.351 2.291 2.655 3.896 3.914 4.812 6.046 6.345 8.587 7.113 11.541 7.113 15.162 7.113 17.887 6.082 19.72 4.021 21.322 2.211 22.126-.183 22.126-3.16V-26.798C22.126-28.194 21.871-29.157 21.367-29.683 20.797-30.255 19.927-30.542 18.757-30.542 17.59-30.542 16.73-30.255 16.182-29.683 15.652-29.157 15.391-28.194 15.391-26.798V-6.355C15.391-2.965 14.027-.664 11.302 .551 10.524 .917 9.687 1.1 8.794 1.1 8.22 1.1 7.293 .849 6.011 .345 5.026-.021 3.962-.996 2.817-2.576 2.129-3.537 1.625-4.363 1.304-5.05 .57-6.629 .204-8.634 .204-11.063V-26.798C.204-28.194-.048-29.157-.552-29.683-1.125-30.255-1.995-30.542-3.162-30.542-4.331-30.542-5.189-30.255-5.74-29.683-6.267-29.18-6.528-28.218-6.528-26.798V2.955C-6.528 5.452-5.476 6.7-3.369 6.7-2.247 6.7-1.364 6.345-.724 5.636-.242 5.108 0 4.514 0 3.849Z"/>
<path transform="matrix(1,0,0,-1,493.5527,676.7738)" d="M0 0C-1.674-.321-2.875-.711-3.608-1.168-6.241-2.863-7.755-5.864-8.144-10.17H10.101C10.078-6.918 9.16-4.376 7.353-2.543 5.68-.848 3.595 0 1.1 0ZM-8.281-15.117C-8.099-17.889-7.72-19.882-7.146-21.095-5.453-24.716-2.544-26.524 1.58-26.524 3.847-26.524 5.852-25.939 7.592-24.771 8.532-24.131 9.526-22.848 10.581-20.924 11.223-19.756 12.14-19.172 13.329-19.172 14.451-19.172 15.368-19.526 16.079-20.236 16.535-20.695 16.765-21.268 16.765-21.954 16.765-24.429 15.413-26.834 12.711-29.17 10.03-31.46 6.527-32.605 2.198-32.605-4.695-32.605-9.54-30.143-12.335-25.218-14.075-22.149-14.945-18.222-14.945-13.435-14.945-6.929-13.285-1.925-9.964 1.58-7.169 4.512-3.449 5.978 1.201 5.978 6.059 5.978 9.928 4.408 12.815 1.271 14.212-.24 15.289-2.383 16.044-5.153 16.548-6.964 16.8-8.625 16.8-10.136 16.8-13.457 15.241-15.117 12.127-15.117Z"/>
<path transform="matrix(1,0,0,-1,433.4922,199.13611)" d="M0 0C10.102 0 18.318-8.218 18.318-18.319 18.318-28.42 10.102-36.638 0-36.638-10.102-36.638-18.32-28.42-18.32-18.319-18.32-8.218-10.102 0 0 0M-140.39-239.392C-151.917-239.392-161.293-230.012-161.293-218.482-161.293-206.956-151.917-197.579-140.39-197.579-128.863-197.579-119.484-206.956-119.484-218.482-119.484-230.012-128.863-239.392-140.39-239.392M55.469-223.631C55.471-223.597 55.471-223.562 55.471-223.528 55.471-223.479 55.471-223.429 55.469-223.379 55.389-217.574 50.676-212.808 44.93-212.658 44.723-212.646 44.531-212.644 44.328-212.653H-108.682C-111.434-197.649-124.602-186.24-140.39-186.24-158.168-186.24-172.632-200.704-172.632-218.482-172.632-236.264-158.168-250.729-140.39-250.729-124.489-250.729-111.247-239.156-108.624-223.992H44.131V-413.214H-297.018L-344.495-365.466V-24.011H-29.104C-26.441-37.649-14.406-47.977 0-47.977 16.354-47.977 29.656-34.672 29.656-18.319 29.656-1.966 16.354 11.339 0 11.339-14.422 11.339-26.467 .989-29.111-12.672H-344.617C-344.917-12.653-345.186-12.659-345.453-12.682-351.104-12.933-355.599-17.443-355.826-23.079-355.838-23.238-355.845-23.398-355.845-23.542-355.845-23.665-355.841-23.786-355.834-23.905V-365.469C-355.836-365.534-355.837-365.599-355.837-365.662-355.837-365.751-355.835-365.842-355.831-365.933-355.763-368.668-354.68-371.251-352.722-373.273L-304.928-421.339C-304.917-421.351-304.861-421.405-304.85-421.417-302.909-423.336-300.346-424.442-297.649-424.545-297.365-424.566-297.102-424.568-296.847-424.552H44.252C44.367-424.559 44.482-424.562 44.588-424.562 44.754-424.562 44.918-424.556 45.082-424.542 50.775-424.283 55.381-419.554 55.469-413.837 55.471-413.784 55.471-413.732 55.471-413.681 55.471-413.646 55.471-413.612 55.469-413.578Z"/>
</g>
</g>
</svg>
